<svg xmlns="http://www.w3.org/2000/svg" >
    <defs>
        <svg id="user--profile" xmlns="http://www.w3.org/2000/svg" viewBox="0 0 32 32"><defs><style>.cls-1{fill:none;}</style></defs><title>user--profile</title><path d="M12,4A5,5,0,1,1,7,9a5,5,0,0,1,5-5m0-2a7,7,0,1,0,7,7A7,7,0,0,0,12,2Z"/><path d="M22,30H20V25a5,5,0,0,0-5-5H9a5,5,0,0,0-5,5v5H2V25a7,7,0,0,1,7-7h6a7,7,0,0,1,7,7Z"/><rect x="22" y="4" width="10" height="2"/><rect x="22" y="9" width="10" height="2"/><rect x="22" y="14" width="7" height="2"/><rect id="_Transparent_Rectangle_" data-name="&lt;Transparent Rectangle&gt;" class="cls-1" width="32" height="32"/></svg>
        <svg id="events" xmlns="http://www.w3.org/2000/svg" width="32" height="32" viewBox="0 0 32 32"><defs><style>.cls-1{fill:none;}</style></defs><title>events</title><path d="M26,14H24v2h2a3.0033,3.0033,0,0,1,3,3v4h2V19A5.0058,5.0058,0,0,0,26,14Z" transform="translate(0 0)"/><path d="M24,4a3,3,0,1,1-3,3,3,3,0,0,1,3-3m0-2a5,5,0,1,0,5,5A5,5,0,0,0,24,2Z" transform="translate(0 0)"/><path d="M23,30H21V28a3.0033,3.0033,0,0,0-3-3H14a3.0033,3.0033,0,0,0-3,3v2H9V28a5.0059,5.0059,0,0,1,5-5h4a5.0059,5.0059,0,0,1,5,5Z" transform="translate(0 0)"/><path d="M16,13a3,3,0,1,1-3,3,3,3,0,0,1,3-3m0-2a5,5,0,1,0,5,5A5,5,0,0,0,16,11Z" transform="translate(0 0)"/><path d="M8,14H6a5.0059,5.0059,0,0,0-5,5v4H3V19a3.0033,3.0033,0,0,1,3-3H8Z" transform="translate(0 0)"/><path d="M8,4A3,3,0,1,1,5,7,3,3,0,0,1,8,4M8,2a5,5,0,1,0,5,5A5,5,0,0,0,8,2Z" transform="translate(0 0)"/><rect id="_Transparent_Rectangle_" data-name="&lt;Transparent Rectangle&gt;" class="cls-1" width="32" height="32"/></svg>
        <svg id="edit" version="1.1" xmlns="http://www.w3.org/2000/svg" xmlns:xlink="http://www.w3.org/1999/xlink" x="0px" y="0px" width="32px" height="32px" viewBox="0 0 32 32" style="enable-background:new 0 0 32 32;" xml:space="preserve">
            <style type="text/css">.st0{fill:none;}</style>
            <title>edit</title>
            <rect x="2" y="26" width="28" height="2"/>
            <path d="M25.4,9c0.8-0.8,0.8-2,0-2.8c0,0,0,0,0,0l-3.6-3.6c-0.8-0.8-2-0.8-2.8,0c0,0,0,0,0,0l-15,15V24h6.4L25.4,9z M20.4,4L24,7.6 l-3,3L17.4,7L20.4,4z M6,22v-3.6l10-10l3.6,3.6l-10,10H6z"/>
            <rect id="_Transparent_Rectangle_" class="st0" width="32" height="32"/>
        </svg>
        <svg id="money" xmlns="http://www.w3.org/2000/svg" width="32" height="32" viewBox="0 0 32 32"><defs><style>.cls-1{fill:none;}</style></defs><title>money</title><rect x="2" y="22" width="28" height="2"/><rect x="2" y="26" width="28" height="2"/><path d="M24,10a2,2,0,1,0,2,2,2,2,0,0,0-2-2Z"/><path d="M16,16a4,4,0,1,1,4-4A4.0045,4.0045,0,0,1,16,16Zm0-6a2,2,0,1,0,2,2A2.002,2.002,0,0,0,16,10Z"/><path d="M8,10a2,2,0,1,0,2,2,2,2,0,0,0-2-2Z"/><path d="M28,20H4a2.0051,2.0051,0,0,1-2-2V6A2.0051,2.0051,0,0,1,4,4H28a2.0051,2.0051,0,0,1,2,2V18A2.0027,2.0027,0,0,1,28,20ZM28,6H4V18H28Z"/><rect id="_Transparent_Rectangle_" data-name="&lt;Transparent Rectangle&gt;" class="cls-1" width="32" height="32"/></svg>
        <svg id="document--tasks" xmlns="http://www.w3.org/2000/svg" width="32" height="32" viewBox="0 0 32 32">
            <defs>
                <style>
                .cls-1 {
                    fill: none;
                }
                </style>
            </defs>
            <polygon points="22 27.18 19.41 24.59 18 26 22 30 30 22 28.59 20.59 22 27.18"/>
            <path d="M15,28H8V4h8v6a2.0058,2.0058,0,0,0,2,2h6v6h2V10a.9092.9092,0,0,0-.3-.7l-7-7A.9087.9087,0,0,0,18,2H8A2.0058,2.0058,0,0,0,6,4V28a2.0058,2.0058,0,0,0,2,2h7ZM18,4.4,23.6,10H18Z"/>
            <rect id="_Transparent_Rectangle_" data-name="&lt;Transparent Rectangle&gt;" class="cls-1" width="32" height="32"/>
        </svg>
        <svg id="notification" xmlns="http://www.w3.org/2000/svg" width="32" height="32" viewBox="0 0 32 32">
            <defs>
                <style>
                .cls-1 {
                    fill: none;
                }
                </style>
            </defs>
            <path d="M28.7071,19.293,26,16.5859V13a10.0136,10.0136,0,0,0-9-9.9492V1H15V3.0508A10.0136,10.0136,0,0,0,6,13v3.5859L3.2929,19.293A1,1,0,0,0,3,20v3a1,1,0,0,0,1,1h7v.7768a5.152,5.152,0,0,0,4.5,5.1987A5.0057,5.0057,0,0,0,21,25V24h7a1,1,0,0,0,1-1V20A1,1,0,0,0,28.7071,19.293ZM19,25a3,3,0,0,1-6,0V24h6Zm8-3H5V20.4141L7.707,17.707A1,1,0,0,0,8,17V13a8,8,0,0,1,16,0v4a1,1,0,0,0,.293.707L27,20.4141Z"/>
            <rect id="_Transparent_Rectangle_" data-name="&lt;Transparent Rectangle&gt;" class="cls-1" width="32" height="32"/>
        </svg>
        <svg id="add" version="1.1" xmlns="http://www.w3.org/2000/svg" xmlns:xlink="http://www.w3.org/1999/xlink" x="0px" y="0px" width="32px" height="32px" viewBox="0 0 32 32" style="enable-background:new 0 0 32 32;" xml:space="preserve">
            <style type="text/css">
                .st0{fill:none;}
            </style>
            <polygon points="17,15 17,8 15,8 15,15 8,15 8,17 15,17 15,24 17,24 17,17 24,17 24,15 "/>
            <rect class="st0" width="32" height="32"/>
        </svg>
        <svg id="trash-can" xmlns="http://www.w3.org/2000/svg" viewBox="0 0 32 32">
            <defs><style>.cls-1{fill:none;}</style></defs><title>trash-can</title><rect x="12" y="12" width="2" height="12"/><rect x="18" y="12" width="2" height="12"/><path d="M4,6V8H6V28a2,2,0,0,0,2,2H24a2,2,0,0,0,2-2V8h2V6ZM8,28V8H24V28Z"/><rect x="12" y="2" width="8" height="2"/><rect id="_Transparent_Rectangle_" data-name="&lt;Transparent Rectangle&gt;" class="cls-1" width="32" height="32"/>
        </svg>
        <svg id="search" xmlns="http://www.w3.org/2000/svg" width="32" height="32" viewBox="0 0 32 32">
            <defs>
                <style>
                .cls-1 {
                    fill: none;
                }
                </style>
            </defs>
            <path d="M29,27.5859l-7.5521-7.5521a11.0177,11.0177,0,1,0-1.4141,1.4141L27.5859,29ZM4,13a9,9,0,1,1,9,9A9.01,9.01,0,0,1,4,13Z" transform="translate(0 0)"/>
            <rect id="_Transparent_Rectangle_" data-name="&lt;Transparent Rectangle&gt;" class="cls-1" width="32" height="32"/>
        </svg>
        <svg id="calendar" version="1.1" xmlns="http://www.w3.org/2000/svg" xmlns:xlink="http://www.w3.org/1999/xlink" x="0px" y="0px" width="32px" height="32px" viewBox="0 0 32 32" style="enable-background:new 0 0 32 32;" xml:space="preserve">
            <style type="text/css">
                .st0{fill:none;}
            </style>
            <title>calendar</title>
            <path d="M26,4h-4V2h-2v2h-8V2h-2v2H6C4.9,4,4,4.9,4,6v20c0,1.1,0.9,2,2,2h20c1.1,0,2-0.9,2-2V6C28,4.9,27.1,4,26,4z M26,26H6V12h20
                V26z M26,10H6V6h4v2h2V6h8v2h2V6h4V10z"/>
            <rect id="_Transparent_Rectangle_" class="st0" width="32" height="32"/>
        </svg>
        <svg id="save" xmlns="http://www.w3.org/2000/svg" viewBox="0 0 32 32"><defs><style>.cls-1{fill:none;}</style></defs><title>save</title><path d="M27.71,9.29l-5-5A1,1,0,0,0,22,4H6A2,2,0,0,0,4,6V26a2,2,0,0,0,2,2H26a2,2,0,0,0,2-2V10A1,1,0,0,0,27.71,9.29ZM12,6h8v4H12Zm8,20H12V18h8Zm2,0V18a2,2,0,0,0-2-2H12a2,2,0,0,0-2,2v8H6V6h4v4a2,2,0,0,0,2,2h8a2,2,0,0,0,2-2V6.41l4,4V26Z"/><rect id="_Transparent_Rectangle_" data-name="&lt;Transparent Rectangle&gt;" class="cls-1" width="32" height="32"/></svg>
        <svg id="send--alt" xmlns="http://www.w3.org/2000/svg" viewBox="0 0 32 32"><defs><style>.cls-1{fill:none;}</style></defs><title>send--alt</title><path d="M27.71,4.29a1,1,0,0,0-1.05-.23l-22,8a1,1,0,0,0,0,1.87l9.6,3.84,3.84,9.6A1,1,0,0,0,19,28h0a1,1,0,0,0,.92-.66l8-22A1,1,0,0,0,27.71,4.29ZM19,24.2l-2.79-7L21,12.41,19.59,11l-4.83,4.83L7.8,13,25.33,6.67Z"/><rect id="_Transparent_Rectangle_" data-name="&lt;Transparent Rectangle&gt;" class="cls-1" width="32" height="32"/></svg>
        <svg id="warning" xmlns="http://www.w3.org/2000/svg" viewBox="0 0 32 32"><defs><style>.cls-1{fill:none;}</style></defs><title>warning</title><path d="M16,2A14,14,0,1,0,30,16,14,14,0,0,0,16,2Zm0,26A12,12,0,1,1,28,16,12,12,0,0,1,16,28Z" transform="translate(0 0)"/><rect x="15" y="8" width="2" height="11"/><path d="M16,22a1.5,1.5,0,1,0,1.5,1.5A1.5,1.5,0,0,0,16,22Z" transform="translate(0 0)"/><rect id="_Transparent_Rectangle_" data-name="&lt;Transparent Rectangle&gt;" class="cls-1" width="32" height="32"/></svg>
        <svg id="chevron--left" version="1.1" xmlns="http://www.w3.org/2000/svg" xmlns:xlink="http://www.w3.org/1999/xlink" x="0px" y="0px"
            viewBox="0 0 32 32" style="enable-background:new 0 0 32 32;" xml:space="preserve">
            <style type="text/css">
                .st0{fill:none;}
            </style>
            <polygon points="10,16 20,6 21.4,7.4 12.8,16 21.4,24.6 20,26 "/>
            <rect id="_x3C_Transparent_Rectangle_x3E_" class="st0" width="32" height="32"/>
        </svg>
        <svg id="download" xmlns="http://www.w3.org/2000/svg" width="32" height="32" viewBox="0 0 32 32">
            <defs>
                <style>
                .cls-1 {
                    fill: none;
                }
                </style>
            </defs>
            <path d="M26,24v4H6V24H4v4H4a2,2,0,0,0,2,2H26a2,2,0,0,0,2-2h0V24Z"/>
            <polygon points="26 14 24.59 12.59 17 20.17 17 2 15 2 15 20.17 7.41 12.59 6 14 16 24 26 14"/>
            <g id="_Transparent_Rectangle_" data-name="&lt;Transparent Rectangle&gt;">
                <rect class="cls-1" width="32" height="32"/>
            </g>
        </svg>
        <svg id="upload" xmlns="http://www.w3.org/2000/svg" width="32" height="32" viewBox="0 0 32 32">
            <defs>
                <style>
                .cls-1 {
                    fill: none;
                }
                </style>
            </defs>
            <polygon points="6 18 7.41 19.41 15 11.83 15 30 17 30 17 11.83 24.59 19.41 26 18 16 8 6 18"/>
            <path d="M6,8V4H26V8h2V4a2,2,0,0,0-2-2H6A2,2,0,0,0,4,4V8Z"/>
            <rect id="_Transparent_Rectangle_" data-name="&lt;Transparent Rectangle&gt;" class="cls-1" width="32" height="32"/>
        </svg>
        <svg id="launch" xmlns="http://www.w3.org/2000/svg" width="32" height="32" viewBox="0 0 32 32">
            <defs>
                <style>
                .cls-1 {
                    fill: none;
                }
                </style>
            </defs>
            <path d="M26,28H6a2.0027,2.0027,0,0,1-2-2V6A2.0027,2.0027,0,0,1,6,4H16V6H6V26H26V16h2V26A2.0027,2.0027,0,0,1,26,28Z"/>
            <polygon points="20 2 20 4 26.586 4 18 12.586 19.414 14 28 5.414 28 12 30 12 30 2 20 2"/>
            <rect id="_Transparent_Rectangle_" data-name="&lt;Transparent Rectangle&gt;" class="cls-1" width="32" height="32"/>
        </svg>
        <svg id="radio-button--checked" xmlns="http://www.w3.org/2000/svg" viewBox="0 0 32 32"><defs><style>.cls-1{fill:none;}</style></defs><title>radio-button--checked</title><path d="M16,2A14,14,0,1,0,30,16,14,14,0,0,0,16,2Zm0,26A12,12,0,1,1,28,16,12,12,0,0,1,16,28Z"/><path d="M16,10a6,6,0,1,0,6,6A6,6,0,0,0,16,10Z"/><rect id="_Transparent_Rectangle_" data-name="&lt;Transparent Rectangle&gt;" class="cls-1" width="32" height="32"/></svg>
        <svg id="radio-button" xmlns="http://www.w3.org/2000/svg" viewBox="0 0 32 32"><defs><style>.cls-1{fill:none;}</style></defs><title>radio-button</title><path d="M16,2A14,14,0,1,0,30,16,14,14,0,0,0,16,2Zm0,26A12,12,0,1,1,28,16,12,12,0,0,1,16,28Z"/><rect id="_Transparent_Rectangle_" data-name="&lt;Transparent Rectangle&gt;" class="cls-1" width="32" height="32"/></svg>
        <svg id="export" xmlns="http://www.w3.org/2000/svg" width="32" height="32" viewBox="0 0 32 32">
            <defs>
                <style>
                .cls-1 {
                    fill: none;
                }
                </style>
            </defs>
            <path d="M26,24v4H6V24H4v4l.0076-.0049A1.9977,1.9977,0,0,0,6,30H26a2,2,0,0,0,2-2h0V24Z"/>
            <polygon points="6 12 7.411 13.405 15 5.825 15 24 17 24 17 5.825 24.591 13.405 26 12 16 2 6 12"/>
            <g id="_Transparent_Rectangle_" data-name="&lt;Transparent Rectangle&gt;">
                <rect class="cls-1" width="32" height="32"/>
            </g>
        </svg>
        <svg id="view" xmlns="http://www.w3.org/2000/svg" viewBox="0 0 32 32"><defs><style>.cls-1{fill:none;}</style></defs><title>view</title><path d="M30.94,15.66A16.69,16.69,0,0,0,16,5,16.69,16.69,0,0,0,1.06,15.66a1,1,0,0,0,0,.68A16.69,16.69,0,0,0,16,27,16.69,16.69,0,0,0,30.94,16.34,1,1,0,0,0,30.94,15.66ZM16,25c-5.3,0-10.9-3.93-12.93-9C5.1,10.93,10.7,7,16,7s10.9,3.93,12.93,9C26.9,21.07,21.3,25,16,25Z" transform="translate(0 0)"/><path d="M16,10a6,6,0,1,0,6,6A6,6,0,0,0,16,10Zm0,10a4,4,0,1,1,4-4A4,4,0,0,1,16,20Z" transform="translate(0 0)"/><rect id="_Transparent_Rectangle_" data-name="&lt;Transparent Rectangle&gt;" class="cls-1" width="32" height="32"/></svg>
        <svg id="circle-fill" xmlns="http://www.w3.org/2000/svg" width="16" height="16" viewBox="0 0 16 16">
            <defs>
                <style>
                .cls-1 {
                    fill: none;
                }
                </style>
            </defs>
            <circle cx="8" cy="8" r="6"/>
            <rect id="_Transparent_Rectangle_" data-name="&lt;Transparent Rectangle&gt;" class="cls-1" width="16" height="16"/>
        </svg>
        <svg id="close" xmlns="http://www.w3.org/2000/svg" viewBox="0 0 32 32"><defs><style>.cls-1-custom{fill:#1226AA;}.cls-2{fill:none;}</style></defs><title>close</title><polygon class="cls-1-custom" points="24 9.4 22.6 8 16 14.6 9.4 8 8 9.4 14.6 16 8 22.6 9.4 24 16 17.4 22.6 24 24 22.6 17.4 16 24 9.4"/><rect class="cls-2" width="32" height="32"/></svg>
        <svg id="chevron--right" version="1.1" xmlns="http://www.w3.org/2000/svg" xmlns:xlink="http://www.w3.org/1999/xlink" x="0px" y="0px"
                viewBox="0 0 32 32" style="enable-background:new 0 0 32 32;" xml:space="preserve">
            <style type="text/css">
                .st0{fill:none;}
            </style>
            <polygon points="22,16 12,26 10.6,24.6 19.2,16 10.6,7.4 12,6 "/>
            <rect id="_x3C_Transparent_Rectangle_x3E_" class="st0" width="32" height="32"/>
        </svg>
        <svg id="apps" data-name="Layer 1" xmlns="http://www.w3.org/2000/svg" width="32" height="32" viewBox="0 0 32 32">
            <defs>
                <style>
                .cls-1 {
                    fill: none;
                }
                </style>
            </defs>
            <path d="M8,4V8H4V4Zm2-2H2v8h8Zm8,2V8H14V4Zm2-2H12v8h8Zm8,2V8H24V4Zm2-2H22v8h8ZM8,14v4H4V14Zm2-2H2v8h8Zm8,2v4H14V14Zm2-2H12v8h8Zm8,2v4H24V14Zm2-2H22v8h8ZM8,24v4H4V24Zm2-2H2v8h8Zm8,2v4H14V24Zm2-2H12v8h8Zm8,2v4H24V24Zm2-2H22v8h8Z"/>
            <rect id="_Transparent_Rectangle_" data-name="&lt;Transparent Rectangle&gt;" class="cls-1" width="32" height="32"/>
        </svg>
        <svg id="arrow--left" xmlns="http://www.w3.org/2000/svg" width="32" height="32" viewBox="0 0 32 32">
            <defs>
                <style>
                .cls-1 {
                    fill: none;
                }
                </style>
            </defs>
            <polygon points="14 26 15.41 24.59 7.83 17 28 17 28 15 7.83 15 15.41 7.41 14 6 4 16 14 26"/>
            <rect id="_Transparent_Rectangle_" data-name="&lt;Transparent Rectangle&gt;" class="cls-1" width="32" height="32"/>
        </svg>
        <svg id="chat" xmlns="http://www.w3.org/2000/svg" viewBox="0 0 32 32"><defs><style>.cls-1{fill:none;}</style></defs><title>chat</title><path d="M17.74,30,16,29l4-7h6a2,2,0,0,0,2-2V8a2,2,0,0,0-2-2H6A2,2,0,0,0,4,8V20a2,2,0,0,0,2,2h9v2H6a4,4,0,0,1-4-4V8A4,4,0,0,1,6,4H26a4,4,0,0,1,4,4V20a4,4,0,0,1-4,4H21.16Z" transform="translate(0 0)"/><rect x="8" y="10" width="16" height="2"/><rect x="8" y="16" width="10" height="2"/><rect id="_Transparent_Rectangle_" data-name="&lt;Transparent Rectangle&gt;" class="cls-1" width="32" height="32"/></svg>
        <svg id="home" xmlns="http://www.w3.org/2000/svg" width="32" height="32" viewBox="0 0 32 32">
            <defs>
                <style>
                .cls-1 {
                    fill: none;
                }
                </style>
            </defs>
            <rect id="_Transparent_Rectangle_" data-name="&lt;Transparent Rectangle&gt;" class="cls-1" width="32" height="32"/>
            <path d="M16.6123,2.2138a1.01,1.01,0,0,0-1.2427,0L1,13.4194l1.2427,1.5717L4,13.6209V26a2.0041,2.0041,0,0,0,2,2H26a2.0037,2.0037,0,0,0,2-2V13.63L29.7573,15,31,13.4282ZM18,26H14V18h4Zm2,0V18a2.0023,2.0023,0,0,0-2-2H14a2.002,2.002,0,0,0-2,2v8H6V12.0615l10-7.79,10,7.8005V26Z" transform="translate(0 0)"/>
        </svg>
    </defs>
</svg>
