<svg xmlns="http://www.w3.org/2000/svg" >
    <defs>
        <svg id="trash" xmlns="http://www.w3.org/2000/svg" class="icon icon-tabler icon-tabler-trash" width="24" height="24" viewBox="0 0 24 24" stroke-width="2" stroke="currentColor" fill="none" stroke-linecap="round" stroke-linejoin="round">
            <path stroke="none" d="M0 0h24v24H0z" fill="none"></path>
            <path d="M4 7l16 0"></path>
            <path d="M10 11l0 6"></path>
            <path d="M14 11l0 6"></path>
            <path d="M5 7l1 12a2 2 0 0 0 2 2h8a2 2 0 0 0 2 -2l1 -12"></path>
            <path d="M9 7v-3a1 1 0 0 1 1 -1h4a1 1 0 0 1 1 1v3"></path>
        </svg>
        <svg id="check" xmlns="http://www.w3.org/2000/svg" class="icon icon-tabler icon-tabler-check" width="24" height="24" viewBox="0 0 24 24" stroke-width="2" stroke="currentColor" fill="none" stroke-linecap="round" stroke-linejoin="round">
            <path stroke="none" d="M0 0h24v24H0z" fill="none"></path>
            <path d="M5 12l5 5l10 -10"></path>
        </svg>
        <svg id="alert-triangle" xmlns="http://www.w3.org/2000/svg" class="icon icon-tabler icon-tabler-alert-triangle" width="24" height="24" viewBox="0 0 24 24" stroke-width="2" stroke="currentColor" fill="none" stroke-linecap="round" stroke-linejoin="round">
            <path stroke="none" d="M0 0h24v24H0z" fill="none"></path>
            <path d="M10.24 3.957l-8.422 14.06a1.989 1.989 0 0 0 1.7 2.983h16.845a1.989 1.989 0 0 0 1.7 -2.983l-8.423 -14.06a1.989 1.989 0 0 0 -3.4 0z"></path>
            <path d="M12 9v4"></path>
            <path d="M12 17h.01"></path>
        </svg>
        <svg id="circle-x-filled" xmlns="http://www.w3.org/2000/svg" class="icon icon-tabler icon-tabler-circle-x-filled" width="24" height="24" viewBox="0 0 24 24" stroke-width="2" stroke="currentColor" fill="none" stroke-linecap="round" stroke-linejoin="round">
            <path stroke="none" d="M0 0h24v24H0z" fill="none"></path>
            <path d="M17 3.34a10 10 0 1 1 -14.995 8.984l-.005 -.324l.005 -.324a10 10 0 0 1 14.995 -8.336zm-6.489 5.8a1 1 0 0 0 -1.218 1.567l1.292 1.293l-1.292 1.293l-.083 .094a1 1 0 0 0 1.497 1.32l1.293 -1.292l1.293 1.292l.094 .083a1 1 0 0 0 1.32 -1.497l-1.292 -1.293l1.292 -1.293l.083 -.094a1 1 0 0 0 -1.497 -1.32l-1.293 1.292l-1.293 -1.292l-.094 -.083z" stroke-width="0" fill="currentColor"></path>
        </svg>
    </defs>
</svg>