<?xml version="1.0" encoding="UTF-8"?><svg id="Capa_1" xmlns="http://www.w3.org/2000/svg" viewBox="0 0 150 40"><defs><style>.cls-1{fill:#0039a4;}.cls-2{fill:#54575a;}</style></defs><path class="cls-1" d="m30.09,13.15c1.83,0,3.67.01,5.5,0,.49,0,.68.12.68.65-.02,3.66,0,7.33-.01,10.99,0,1.21-.71,2.01-1.9,2.02-3.75.03-7.51.01-11.26.02-.38,0-.53-.18-.52-.55,0-3.72-.01-7.43.01-11.15,0-1.23.82-1.97,2.07-1.97,1.82,0,3.63,0,5.44,0m2.86,6.22c0-1.04,0-2.08,0-3.12,0-.3-.06-.47-.42-.4-2.08.38-4.16.76-6.24,1.13-.29.05-.42.18-.41.49,0,2.08,0,4.16,0,6.24,0,.34.09.48.47.41,2.03-.38,4.05-.75,6.08-1.1.4-.07.53-.26.52-.64-.01-1,0-2.01,0-3.01"/><path class="cls-2" d="m87.44,24.23c0,.71-.02,1.37,0,2.03.02.48-.18.62-.63.59-.72-.04-1.28-.47-1.29-1.21-.02-1.83-.18-3.67.1-5.49.38-2.52,2.91-3.84,5.01-2.63,1.35.78,1.86,2.07,1.84,3.57,0,.42-.09.84-.18,1.25-.48,2.32-3.04,3.41-4.86,1.87m3.05-3.05c0-.55-.03-1.09-.31-1.59-.47-.83-1.69-.95-2.3-.23-.68.81-.59,2.75.17,3.49.75.73,1.83.52,2.25-.44.18-.4.19-.82.18-1.24"/><path class="cls-2" d="m80.57,20.84c0,2.16-.99,3.53-2.76,3.91-1.9.4-3.56-.59-4.06-2.46-.34-1.3-.19-2.56.53-3.71,1.38-2.17,4.6-2.03,5.81.24.35.65.51,1.35.47,2.02m-5.08.17c0,.28.06.68.19,1.07.22.66.73,1.02,1.43,1.03.74,0,1.21-.3,1.43-1.01.25-.82.21-1.64-.12-2.43-.26-.62-.76-.89-1.43-.88-.65,0-1.06.33-1.29.91-.15.38-.22.78-.22,1.32"/><path class="cls-2" d="m55.67,21.1c0-2.14,1.16-3.63,3.06-3.98,2.01-.37,3.68.97,3.65,2.92-.01.77-.31,1.2-1.05,1.47-.71.26-1.45.28-2.19.27-.35,0-.7,0-1.06,0-.47.01-.52.12-.32.54.34.72,1.32,1.19,2.25,1.06.42-.05.84-.07,1.24-.23.19-.08.36-.07.37.2.01,1.02.15,1.17-.93,1.44-2.03.49-3.91-.34-4.68-2.03-.24-.52-.36-1.07-.34-1.64m3.29-.62c.24-.01.59-.01.94-.07.33-.05.67-.15.74-.56.07-.44-.09-.79-.48-1.03-.9-.54-2.08-.12-2.43.87-.22.62-.11.78.55.79.19,0,.39,0,.69,0"/><path class="cls-2" d="m50,22.27c0,.67-.01,1.34,0,2.01.01.39-.15.53-.53.53-1.6,0-1.28.11-1.32-1.27-.04-1.19.11-2.4-.09-3.59-.14-.86-.72-1.31-1.55-1.25-.76.06-1.26.58-1.28,1.41-.03,1.32-.01,2.64-.02,3.97,0,.68-.04.72-.72.72-1.33,0-1.18.06-1.19-1.15,0-1.15-.02-2.29,0-3.44.04-1.65,1.06-2.79,2.71-3.1,1.66-.31,3.12.44,3.72,1.9.17.41.24.85.25,1.29,0,.65,0,1.3,0,1.96h0"/><path class="cls-1" d="m96.73,19.9c0-1.41.01-2.82,0-4.23,0-.45.14-.63.61-.62.92.03,1.83,0,2.75.01,1.38.03,2.5.88,2.84,2.12.36,1.33-.15,2.64-1.35,3.37-.3.18-.28.32-.12.58.62,1.04,1.21,2.1,1.83,3.15.2.33.16.44-.25.47-.59.04-.97-.11-1.26-.68-.45-.92-1-1.78-1.5-2.67-.16-.28-.36-.41-.68-.39-.35.02-.71.02-1.06,0-.45-.03-.63.12-.62.6.03.86-.01,1.72.01,2.59.01.46-.19.56-.6.56-.42,0-.64-.13-.6-.57,0-.03,0-.07,0-.1v-4.17m2.55-.06c.25,0,.49,0,.74,0,1.1-.04,1.77-.74,1.77-1.82,0-1.07-.67-1.8-1.75-1.84-.55-.03-1.09,0-1.64-.01-.38-.01-.49.15-.48.5.02.6,0,1.2,0,1.8q0,1.38,1.36,1.37"/><path class="cls-2" d="m51.22,19.04c0-1.09.01-2.18,0-3.28,0-.41.1-.61.56-.6,1.51.03,1.29-.13,1.28,1.25,0,.55.18.72.7.67.37-.04.74-.03,1.11,0,.26.02.63-.15.71.25.08.42.1.85-.33,1.14-.26.18-.55.22-.85.22q-1.33.02-1.33,1.34c0,.6,0,1.2,0,1.8,0,.99.39,1.37,1.38,1.37.1,0,.22-.03.31,0,.27.08.64-.39.81.1.22.63-.04,1.18-.59,1.42-1.76.76-3.7-.45-3.75-2.35-.03-1.11,0-2.22,0-3.33h0"/><path class="cls-2" d="m71.11,24.84c-2.13,0-3.67-1.37-3.89-3.34-.24-2.09.95-3.92,2.85-4.35.89-.2,1.79-.14,2.64.24.48.22.72.9.51,1.39-.1.22-.25.15-.4.1-.45-.16-.92-.21-1.4-.21-1.37,0-2.33,1.11-2.14,2.48.27,1.91,1.39,2.3,3.13,1.99.82-.14.95-.04.82.79-.04.26-.2.4-.41.51-.57.3-1.18.44-1.72.39"/><path class="cls-1" d="m107.74,21.55c-.74,0-1.48.01-2.22,0-.42-.01-.56.12-.45.56.42,1.72,2.54,2.38,3.98,1.22.25-.2.45-.46.79-.1.4.42.42.51-.02.87-1.19.98-2.95,1.13-4.32.37-1.23-.68-1.86-2.12-1.64-3.72.32-2.27,2.05-3.59,4.14-3.17,1.58.32,2.76,1.96,2.6,3.56-.04.33-.21.41-.49.41-.79,0-1.58,0-2.38,0h0Zm-.53-1.07h0c.55,0,1.09,0,1.64,0,.55,0,.61-.11.4-.63-.32-.79-1.11-1.28-2.02-1.25-.89.03-1.81.68-2.06,1.42-.11.35.03.46.35.46h1.69"/><path class="cls-1" d="m121.19,21.38c0,.6,0,1.2,0,1.8,0,.34.04.64.46.71.26.04.27.24.26.44,0,.2-.02.38-.24.48-.39.19-.99.11-1.25-.26-.2-.3-.33-.24-.58-.08-.93.58-1.94.61-2.96.34-.95-.25-1.54-1.03-1.56-1.96-.02-.94.53-1.7,1.47-2.03.66-.23,1.35-.25,2.03-.35.17-.02.35-.05.52-.08.41-.07.68-.28.71-.72.03-.45-.2-.76-.59-.91-.89-.35-1.7-.18-2.38.49-.2.2-.36.29-.62.08-.43-.35-.46-.46-.08-.88.98-1.1,2.96-1.27,4.1-.34.47.38.69.88.7,1.48,0,.6,0,1.2,0,1.8h0Zm-3.2,2.48c1.59,0,2.13-.56,2.1-2.11,0-.38-.1-.43-.46-.34-.51.13-1.04.17-1.56.24-.32.04-.62.1-.92.21-.44.18-.65.5-.63.99.02.47.27.74.68.9.27.11.55.09.79.11"/><path class="cls-2" d="m42.07,20c0,1.41-.01,2.82,0,4.23,0,.44-.16.59-.59.59-1.5-.02-1.26.09-1.26-1.22-.01-2.57,0-5.14,0-7.72,0-.7.01-.71.71-.71,1.29,0,1.12-.11,1.13,1.13,0,1.23,0,2.47,0,3.7"/><path class="cls-2" d="m63.19,21.86c.05-.74-.09-1.64.08-2.53.3-1.56,1.35-2.36,2.94-2.26.62.04.72.15.72.77,0,.18,0,.35,0,.53,0,.25-.11.32-.35.34-1.14.08-1.46.41-1.47,1.54-.02,1.28,0,2.57,0,3.85,0,.66-.05.71-.68.71-1.4,0-1.22.07-1.23-1.21,0-.53,0-1.06,0-1.74"/><path class="cls-2" d="m81.38,21.83c.05-.76-.09-1.68.09-2.59.29-1.54,1.63-2.45,3.17-2.15.3.06.48.19.47.52,0,.2,0,.39,0,.58.02.35-.11.5-.48.52-.92.04-1.31.43-1.33,1.35-.02,1.34-.03,2.68,0,4.02,0,.5-.15.69-.67.67-1.4-.04-1.24.17-1.25-1.23,0-.51,0-1.02,0-1.69"/><path class="cls-1" d="m112.05,21.18c0-.62,0-1.23,0-1.85,0-.32-.05-.55-.45-.54-.38,0-.38-.27-.39-.55,0-.3.06-.53.42-.52.33.01.42-.17.41-.47,0-.56.01-1.13,0-1.69-.01-.41.2-.5.56-.5.35,0,.57.08.56.5-.02.54.01,1.09,0,1.64-.02.39.12.56.52.53.18-.02.35,0,.53,0,.41-.03.63.1.63.56,0,.43-.23.52-.6.53-1.06.02-1.06.03-1.06,1.08,0,.93-.01,1.87,0,2.8.02.95.21,1.15,1.14,1.18.36,0,.52.13.52.49,0,.34-.07.56-.48.6-1.47.13-2.27-.59-2.28-2.07,0-.56,0-1.13,0-1.69"/><path class="cls-1" d="m124.95,19.37c0-1.25.01-2.5,0-3.75,0-.45.19-.57.6-.57.43,0,.6.15.6.58-.01,2.36,0,4.72,0,7.07,0,.98,0,1,.98,1.16.33.06.32.27.32.5,0,.24.05.53-.31.57-.85.1-1.92-.17-2.1-1.35-.06-.39-.07-.77-.07-1.16,0-1.02,0-2.04,0-3.06"/><path class="cls-1" d="m123.82,21.23c0,.99-.01,1.97,0,2.96,0,.41-.15.56-.56.56-.4,0-.62-.09-.62-.55.01-1.97.01-3.95,0-5.92,0-.45.21-.56.62-.57.41,0,.57.15.56.56-.02.99,0,1.97,0,2.96"/><path class="cls-1" d="m123.24,15.2c.39-.01.73.34.73.74,0,.4-.32.74-.73.74-.4,0-.73-.32-.73-.73,0-.4.32-.74.72-.75"/></svg>