<svg width="105" height="64" viewBox="0 0 105 64" fill="none" xmlns="http://www.w3.org/2000/svg">
<path fill-rule="evenodd" clip-rule="evenodd" d="M28.7443 4.17616C24.8484 4.99905 21.4019 6.88501 18.6481 9.70101C17.1399 11.2432 15.2036 14.0871 15.2036 14.7601C15.2036 14.9078 15.6121 15.1906 16.1115 15.3887L17.0195 15.7484L17.7036 14.4064C18.622 12.6044 21.7881 9.42298 23.7556 8.32465C28.8821 5.4631 35.05 5.21573 39.9978 7.67336C44.2147 9.7684 47.211 13.8263 48.5898 19.3102C48.9145 20.6023 49.2107 21.69 49.2477 21.7275C49.2846 21.7649 49.8981 21.6288 50.6106 21.4252C52.6323 20.8473 57.7248 20.7207 59.7388 21.1985C65.8494 22.6475 70.2023 27.6206 70.716 33.7382L70.8612 35.476H71.8956C72.906 35.476 72.9294 35.4577 72.9216 34.6969C72.9078 33.4072 72.2994 30.4097 71.7587 28.969C70.6385 25.983 68.1113 22.92 65.3933 21.2536C64.6248 20.7826 62.9862 20.0513 61.752 19.6284C59.6846 18.9201 59.2553 18.8578 56.3009 18.8382C54.537 18.8264 52.5774 18.8707 51.9461 18.9367L50.7988 19.0566L50.2539 17.3321C49.1129 13.7225 47.0948 10.5127 44.4847 8.15565C42.96 6.77857 39.6007 5.00097 37.4151 4.4149C35.469 3.89283 30.7065 3.76171 28.7443 4.17616ZM5.8569 21.053C4.96345 22.0489 5.70036 23.9704 6.97581 23.9704C7.28488 23.9704 7.8094 23.7546 8.14174 23.491C8.70616 23.043 9.10552 23.0115 14.2315 23.0115H19.7171V22.1727V21.3337H14.1177C9.45705 21.3337 8.45836 21.2732 8.16165 20.9742C7.6654 20.4734 6.33579 20.519 5.8569 21.053ZM22.3302 21.2752C22.3302 21.5187 23.3458 24.6108 24.5871 28.1462C25.8283 31.6817 26.8438 34.6155 26.8438 34.6658C26.8438 34.7159 27.2983 34.7569 27.8537 34.7569H28.8635L29.7966 32.0602C30.31 30.5772 30.8828 28.988 31.0697 28.5292L31.4096 27.6946L32.6643 31.1659L33.9186 34.637L34.8609 34.7092C35.7014 34.7735 35.8321 34.7084 36.0681 34.1099C36.957 31.8564 40.3845 21.6824 40.3845 21.2972C40.3845 20.8766 40.2337 20.8392 38.803 20.9032L37.2213 20.9742L36.7685 22.2924C36.5198 23.0176 36.0071 24.7832 35.6296 26.2161C35.2522 27.649 34.906 28.8591 34.8606 28.9048C34.815 28.9508 34.3656 27.7785 33.8615 26.2995C32.0292 20.9235 32.1112 21.0939 31.36 21.0939C30.6982 21.0939 30.6585 21.1723 29.4469 24.8692C28.7666 26.9455 28.137 28.726 28.048 28.8257C27.9591 28.9252 27.6869 28.2241 27.4432 27.2676C27.1995 26.3111 26.6617 24.5038 26.2481 23.2513L25.4964 20.9742L23.9133 20.9032C22.5068 20.8404 22.3302 20.8818 22.3302 21.2752ZM3.8372 24.6296C3.07963 25.2764 2.97558 26.1582 3.56709 26.917C4.1952 27.7226 5.41267 27.8056 6.05763 27.0865C6.46929 26.6274 6.78934 26.6071 13.5775 26.6071H20.6673V25.888V25.1689H13.6376C6.96748 25.1689 6.5767 25.1444 6.0037 24.6895C5.25944 24.0986 4.48406 24.0772 3.8372 24.6296ZM42.3249 25.4308C40.9044 26.1579 40.0819 27.4801 39.9558 29.24C39.7845 31.629 40.7409 33.4398 42.6316 34.3063C43.7572 34.8224 46.3945 34.8823 47.8676 34.4254C48.7964 34.1375 48.8167 34.1073 48.7701 33.0971C48.7436 32.5289 48.6768 32.0176 48.6208 31.9612C48.565 31.9049 48.0227 31.985 47.4155 32.1393C45.7115 32.5722 43.9731 32.3179 43.3086 31.5384C43.007 31.1844 42.7601 30.7931 42.7601 30.6686C42.7601 30.5379 44.1137 30.4423 45.9671 30.4423H49.1741V29.1162C49.1741 26.2919 48.0046 25.0931 45.1357 24.9766C43.677 24.9177 43.1672 24.9999 42.3249 25.4308ZM43.8292 27.3609C43.33 27.6591 43.0074 28.0426 43.0013 28.3449C42.9993 28.4436 43.7994 28.5247 44.7793 28.5247C46.1344 28.5247 46.561 28.4456 46.561 28.1944C46.561 27.395 44.7147 26.8316 43.8292 27.3609ZM8.84254 28.1787C8.4508 28.4554 8.31441 28.7924 8.31441 29.4835C8.31441 30.1745 8.4508 30.5115 8.84254 30.7882C9.5692 31.302 10.5318 31.2556 11.0463 30.6819C11.4519 30.2299 11.7779 30.2026 16.7845 30.2026H22.0927V29.4835V28.7643H16.7845C11.7779 28.7643 11.4519 28.737 11.0463 28.285C10.5318 27.7114 9.5692 27.6649 8.84254 28.1787Z" fill="white"/>
<path fill-rule="evenodd" clip-rule="evenodd" d="M4.76273 45.7566C2.90242 41.3936 4.8865 36.7156 9.158 35.3932C13.023 34.1964 17.4475 36.352 17.9852 39.6932L18.1162 40.5088L16.6004 40.5075C15.1684 40.506 15.0622 40.4664 14.6826 39.7933C13.3459 37.4228 9.28796 37.6017 8.01584 40.0877C6.68174 42.6944 7.63028 45.6838 10.0923 46.6327C11.8667 47.3164 13.9662 46.6452 14.6624 45.1723C15.0523 44.3475 15.0604 44.3441 16.6727 44.3441C17.563 44.3441 18.2915 44.3939 18.2915 44.4548C18.2915 44.5159 18.0785 45.1406 17.8179 45.8429C17.308 47.2181 16.0869 48.5741 14.7282 49.2737C13.5096 49.9013 10.3677 50.0267 8.82422 49.5094C7.20314 48.966 5.43406 47.3315 4.76273 45.7566ZM78.3968 38.771C78.3986 38.2107 78.4646 37.5097 78.5433 37.2129C78.6669 36.747 78.8444 36.6736 79.8465 36.6736H81.0063V38.2317V39.7897H82.6695H84.3321V40.9883V42.1868H82.6695H81.0063L81.0098 44.1643C81.0122 45.2909 81.1443 46.3998 81.3171 46.7411C81.5888 47.2766 81.7665 47.3396 82.9857 47.3339C84.4803 47.3269 84.6981 47.5673 84.5288 49.0398C84.4629 49.616 84.3075 49.7499 83.5011 49.9253C82.2884 50.1892 80.396 49.9799 79.673 49.502C78.5193 48.739 78.2822 48.0289 78.1557 44.9548L78.0368 42.0669L77.1465 41.9926C76.2614 41.9185 76.2555 41.9107 76.2555 40.8541V39.7897H77.3247H78.3933L78.3968 38.771ZM19.7665 41.9212C20.4749 40.7052 21.2337 40.1091 22.6814 39.6311C24.9194 38.8918 27.661 39.8636 28.8607 41.8215C29.4793 42.8309 29.5755 43.2167 29.5755 44.6849C29.5755 46.1028 29.4686 46.5652 28.9244 47.4992C26.952 50.8848 21.6437 50.8257 19.7003 47.3969C18.8487 45.894 18.8781 43.446 19.7665 41.9212ZM54.7636 44.7223C54.7752 41.884 56.1588 40.0721 58.6967 39.5711C60.4455 39.226 62.5407 39.6766 63.3813 40.5791C64.3922 41.6654 64.8531 43.544 64.4655 45.0032C64.3257 45.5296 64.2428 45.5425 61.0316 45.5425H57.7412L57.932 46.0819C58.2671 47.0302 59.5305 47.5086 61.3365 47.3712C62.2119 47.3048 63.1407 47.1357 63.4004 46.9951C63.9795 46.6825 64.0676 46.8149 64.1745 48.1534C64.2573 49.1872 64.2417 49.2126 63.3087 49.5655C62.7861 49.7632 61.5003 49.9367 60.4521 49.9511C57.9533 49.9852 56.5263 49.3073 55.4713 47.5857C54.8499 46.5716 54.7574 46.1974 54.7636 44.7223ZM65.5653 44.7012C65.5653 42.0276 66.7766 40.3753 69.3651 39.5204C70.8351 39.0347 73.6178 39.7681 74.6426 40.9116C75.002 41.3128 75.7803 42.9174 75.7803 43.2577C75.7803 43.328 75.1436 43.3853 74.3655 43.3853C73.1733 43.3853 72.8576 43.291 72.3573 42.786C71.24 41.6587 69.4167 42.1518 68.7501 43.7613C67.7109 46.2718 70.6526 48.4478 72.4545 46.5014C73.0436 45.8647 73.2759 45.7823 74.4759 45.7823H75.8319L75.6729 46.4414C75.1617 48.5604 73.1385 49.9819 70.673 49.9542C67.5345 49.919 65.5653 47.8941 65.5653 44.7012ZM30.4069 40.7605C30.4069 40.2707 30.4782 39.7976 30.5654 39.71C30.9275 39.3444 33.2089 39.5532 33.7581 40.0019C34.3 40.4446 34.3281 40.4446 35.147 40.0019C36.2504 39.4053 38.333 39.4 39.4257 39.9916C40.8992 40.7888 41.2046 41.7836 41.2961 46.0819L41.3763 49.8572H39.829H38.2815L38.2045 46.3597C38.1309 43.019 38.1024 42.8419 37.5667 42.4046C36.7671 41.7521 35.9461 41.8344 35.1398 42.6477L34.4454 43.3484V46.6028V49.8572H32.9013H31.3572V45.8796C31.3572 42.1038 31.3332 41.8958 30.882 41.7768C30.5145 41.6798 30.4069 41.4499 30.4069 40.7605ZM42.9974 41.7768C42.6136 41.6755 42.5223 41.4499 42.5223 40.6006V39.5501H43.9213C44.9307 39.5501 45.4721 39.674 45.8654 39.9955C46.3976 40.4302 46.4295 40.4295 47.2034 39.9686C48.3768 39.2701 51.0335 39.4436 51.9167 40.2764C53.1585 41.4468 53.3074 42.0271 53.4069 46.0819L53.4998 49.8572H51.9308H50.3617V46.7291C50.3617 43.2678 50.0924 42.308 49.0461 42.0432C48.2375 41.8385 47.1549 42.3316 46.8293 43.0533C46.6739 43.3973 46.5608 44.9553 46.5608 46.7524V49.8572H45.0168H43.4726V45.8796C43.4726 42.1038 43.4486 41.8958 42.9974 41.7768ZM57.9635 43.0393C57.9635 42.8491 58.2011 42.5255 58.4917 42.3203C59.5682 41.5592 61.7642 42.0575 61.7642 43.0629C61.7642 43.3062 61.2975 43.3853 59.864 43.3853C58.3661 43.3853 57.9635 43.3119 57.9635 43.0393ZM24.392 47.2205C22.2388 47.2205 21.3071 44.3956 22.9227 42.7654C24.088 41.5896 26.1917 42.311 26.5046 43.9934C26.8272 45.7281 25.8501 47.2205 24.392 47.2205Z" fill="#04CBFB"/>
<path d="M94.2004 50.717C98.5083 50.717 102 47.203 102 42.868C102 38.5332 98.5083 35.019 94.2004 35.019C89.8926 35.019 86.4004 38.5332 86.4004 42.868C86.4004 47.203 89.8926 50.717 94.2004 50.717Z" fill="#DE4C7E"/>
<path d="M91.3823 44.6314L92.6975 43.0182C92.8223 42.8604 92.9117 42.7203 92.9662 42.5979C93.0239 42.4723 93.0526 42.3371 93.0526 42.1922C93.0526 42.0087 92.992 41.8638 92.8702 41.7575C92.7521 41.6512 92.6033 41.5982 92.4239 41.5982C92.2541 41.5982 92.0945 41.6448 91.9439 41.7382C91.7933 41.8315 91.6703 41.9571 91.5743 42.115H91.531L91.5599 41.6126C91.6751 41.4967 91.8095 41.4049 91.9631 41.3372C92.1166 41.2665 92.2732 41.231 92.4335 41.231C92.6351 41.231 92.8144 41.2729 92.971 41.3566C93.1277 41.4371 93.2495 41.5498 93.3359 41.6947C93.4223 41.8364 93.4654 41.9942 93.4654 42.1681C93.4654 42.3548 93.4241 42.532 93.3407 42.6994C93.2609 42.8636 93.1517 43.0311 93.0143 43.2017L92.1071 44.3127H93.6047V44.6798H91.3823V44.6314ZM94.3235 44.7474C94.2503 44.7474 94.1861 44.7216 94.1315 44.6702C94.0805 44.6153 94.0547 44.551 94.0547 44.4769C94.0547 44.3996 94.0805 44.3336 94.1315 44.2788C94.1861 44.2241 94.2503 44.1968 94.3235 44.1968C94.4003 44.1968 94.4662 44.2241 94.5202 44.2788C94.5749 44.3336 94.6018 44.3996 94.6018 44.4769C94.6018 44.551 94.5749 44.6153 94.5202 44.6702C94.4662 44.7216 94.4003 44.7474 94.3235 44.7474ZM96.1505 44.7474C95.8594 44.7474 95.605 44.6718 95.3873 44.5203C95.1731 44.369 95.0081 44.1614 94.8929 43.8972C94.7777 43.63 94.7201 43.3273 94.7201 42.9892C94.7201 42.6511 94.7777 42.35 94.8929 42.0859C95.0081 41.8186 95.1731 41.6094 95.3873 41.458C95.605 41.3066 95.8594 41.231 96.1505 41.231C96.4415 41.231 96.6946 41.3066 96.9089 41.458C97.1266 41.6094 97.2929 41.8186 97.4081 42.0859C97.5232 42.35 97.5809 42.6511 97.5809 42.9892C97.5809 43.3273 97.5232 43.63 97.4081 43.8972C97.2929 44.1614 97.1266 44.369 96.9089 44.5203C96.6946 44.6718 96.4415 44.7474 96.1505 44.7474ZM96.1505 44.3803C96.3424 44.3803 96.5135 44.3256 96.6641 44.2161C96.8177 44.1033 96.9359 43.9424 97.0192 43.733C97.1057 43.5238 97.1489 43.2758 97.1489 42.9892C97.1489 42.7026 97.1057 42.4547 97.0192 42.2454C96.9359 42.036 96.8177 41.8767 96.6641 41.7672C96.5135 41.6544 96.3424 41.5982 96.1505 41.5982C95.9585 41.5982 95.7857 41.6544 95.6321 41.7672C95.4814 41.8767 95.3633 42.036 95.2769 42.2454C95.1935 42.4547 95.1521 42.7026 95.1521 42.9892C95.1521 43.2758 95.1935 43.5238 95.2769 43.733C95.3633 43.9424 95.4814 44.1033 95.6321 44.2161C95.7857 44.3256 95.9585 44.3803 96.1505 44.3803Z" fill="white"/>
<path d="M44.8423 59.0886V55.0046C44.8423 54.7843 44.9 54.6136 45.0155 54.4926C45.131 54.3714 45.2891 54.3109 45.4898 54.3109H47.3662C47.9792 54.3109 48.4493 54.4306 48.7765 54.6701C49.1037 54.9096 49.2672 55.2551 49.2672 55.7066C49.2672 56.304 48.94 56.6921 48.2857 56.8711C48.6789 56.9619 48.9744 57.1257 49.1724 57.3625C49.3703 57.5992 49.4692 57.887 49.4692 58.2256C49.4692 58.7569 49.2934 59.1491 48.9414 59.4024C48.5895 59.6558 48.0314 59.7824 47.2671 59.7824H45.4898C45.2864 59.7824 45.1268 59.7218 45.0114 59.6007C44.8987 59.4795 44.8423 59.3088 44.8423 59.0886ZM46.0754 58.8533H47.1393C47.5104 58.8533 47.7785 58.7941 47.9434 58.6757C48.1112 58.5573 48.195 58.3673 48.195 58.1058C48.195 57.6378 47.8459 57.4051 47.1476 57.4079H46.0754V58.8533ZM46.0754 56.611H47.0692C47.3551 56.611 47.5791 56.549 47.7414 56.4251C47.9036 56.3013 47.9848 56.1291 47.9848 55.9089C47.9848 55.463 47.6796 55.24 47.0692 55.24H46.0754V56.611ZM50.0054 58.6839C50.0054 58.2104 50.2213 57.8608 50.6528 57.6351C51.0844 57.4093 51.7525 57.291 52.657 57.2799H52.7931C52.7931 56.7321 52.5113 56.4582 51.9477 56.4582C51.4694 56.4582 51.1298 56.6702 50.9291 57.0941C50.9291 57.1106 50.8645 57.1134 50.7353 57.1024C50.6088 57.0913 50.481 57.0432 50.3518 56.9578C50.2226 56.8725 50.158 56.7486 50.158 56.5862C50.158 56.3054 50.3216 56.0645 50.6487 55.8635C50.9759 55.6625 51.435 55.5621 52.0261 55.5621C53.3209 55.5621 53.9684 56.1291 53.9684 57.2634V59.708C53.9684 59.7355 53.9217 59.7645 53.8282 59.7947C53.7348 59.825 53.6316 59.8402 53.5189 59.8402C53.1203 59.8402 52.8865 59.6241 52.8178 59.1919C52.5017 59.6488 52.0261 59.8774 51.391 59.8774C50.9621 59.8774 50.624 59.7672 50.3766 59.547C50.1292 59.3267 50.0054 59.0391 50.0054 58.6839ZM51.1476 58.5973C51.1476 58.7486 51.2054 58.8697 51.3209 58.9606C51.4364 59.0514 51.5917 59.0969 51.7869 59.0969C52.0783 59.0969 52.3189 59.0102 52.5085 58.8367C52.6982 58.6606 52.7931 58.4375 52.7931 58.1678V57.9282L52.5745 57.9406C52.0962 57.9517 51.7387 58.0095 51.5024 58.1141C51.2659 58.2159 51.1476 58.377 51.1476 58.5973ZM54.6076 57.7176C54.6076 57.0927 54.811 56.5793 55.2179 56.1774C55.6276 55.7727 56.1485 55.5703 56.7809 55.5703C57.3445 55.5703 57.7775 55.6928 58.0799 55.9378C58.385 56.1829 58.5376 56.432 58.5376 56.6853C58.5376 56.8312 58.4841 56.9496 58.3768 57.0405C58.2696 57.1312 58.1623 57.189 58.0552 57.2138C57.9479 57.2359 57.8888 57.2345 57.8778 57.2097C57.6909 56.7527 57.3417 56.5256 56.8303 56.5283C56.5032 56.5283 56.2338 56.6413 56.022 56.867C55.8132 57.0899 55.7086 57.3735 55.7086 57.7176C55.7086 58.0728 55.8132 58.3646 56.022 58.593C56.2338 58.8216 56.5032 58.9358 56.8303 58.9358C57.3417 58.9358 57.6909 58.7073 57.8778 58.2503C57.8833 58.2283 57.941 58.227 58.0511 58.2462C58.161 58.2655 58.2696 58.3219 58.3768 58.4155C58.4841 58.5091 58.5376 58.6317 58.5376 58.7831C58.5376 59.0253 58.3823 59.2717 58.0716 59.5222C57.7609 59.7699 57.3308 59.8938 56.7809 59.8938C56.1458 59.8938 55.6249 59.6902 55.2179 59.2827C54.811 58.8753 54.6076 58.3536 54.6076 57.7176ZM59.1686 59.2497V54.0383C59.1686 54.0217 59.1878 54.0039 59.2264 53.9846C59.2648 53.9654 59.3198 53.9474 59.3913 53.931C59.4655 53.9144 59.5398 53.9062 59.614 53.9062C60.1088 53.9062 60.3563 54.2241 60.3563 54.86V57.4493L61.515 55.9833C61.6883 55.7299 61.9082 55.6033 62.1749 55.6033C62.2876 55.6033 62.3976 55.6336 62.5048 55.6942C62.6148 55.752 62.6945 55.8139 62.744 55.88C62.7963 55.9433 62.8168 55.9874 62.8058 56.0121L61.5068 57.6267L62.9749 59.4272C62.9859 59.4493 62.9639 59.4933 62.9089 59.5594C62.8566 59.6227 62.7742 59.6847 62.6615 59.7453C62.5488 59.803 62.4361 59.8319 62.3233 59.8319C62.0594 59.8319 61.8354 59.7053 61.6512 59.452L60.3563 57.887V59.2497C60.3563 59.6269 60.1816 59.8154 59.8325 59.8154H59.7088C59.3487 59.8154 59.1686 59.6269 59.1686 59.2497ZM64.1379 59.101C63.6155 58.5697 63.3544 57.887 63.3544 57.0528C63.3544 56.2159 63.6182 55.5318 64.1461 55.0005C64.6767 54.4664 65.353 54.1993 66.175 54.1993C67.0025 54.1993 67.6775 54.465 68.1999 54.9963C68.7249 55.5249 68.9875 56.2077 68.9875 57.0446C68.9875 57.8786 68.7235 58.5627 68.1957 59.0969C67.6707 59.6282 66.9943 59.8938 66.1668 59.8938C65.3392 59.8938 64.663 59.6296 64.1379 59.101ZM64.5956 57.0405C64.5956 57.5579 64.7413 57.9778 65.0328 58.2999C65.3269 58.6219 65.7076 58.7831 66.175 58.7831C66.6423 58.7831 67.0218 58.6233 67.3132 58.304C67.6074 57.9819 67.7544 57.5634 67.7544 57.0487C67.7544 56.5311 67.6059 56.1113 67.3091 55.7891C67.0149 55.4643 66.6341 55.3019 66.1668 55.3019C65.6994 55.3019 65.32 55.4616 65.0285 55.7809C64.7399 56.0975 64.5956 56.5174 64.5956 57.0405ZM69.3339 56.1443V56.0783C69.3339 55.7975 69.5002 55.657 69.8329 55.657H70.171V55.4341C70.171 54.3797 70.6466 53.8525 71.5979 53.8525C71.9415 53.8525 72.2013 53.9144 72.3773 54.0383C72.556 54.1622 72.6454 54.3177 72.6454 54.5049C72.6454 54.5903 72.6247 54.6755 72.5835 54.7609C72.5451 54.8435 72.5051 54.9055 72.4639 54.9467C72.4227 54.9853 72.3993 54.9991 72.3938 54.9881C72.2371 54.8422 72.0473 54.7691 71.8247 54.7691C71.6515 54.7691 71.5237 54.8215 71.4412 54.9262C71.3614 55.028 71.3216 55.1973 71.3216 55.4341V55.657H71.8535C72.1862 55.657 72.3511 55.803 72.3484 56.0947V56.1733C72.3484 56.4485 72.1835 56.5862 71.8535 56.5862H71.3628V59.2497C71.3628 59.4589 71.3175 59.6062 71.2267 59.6915C71.136 59.7741 71.0041 59.8154 70.8308 59.8154H70.703C70.3484 59.8154 70.171 59.6269 70.171 59.2497V56.5862H69.8329C69.5002 56.5834 69.3339 56.4361 69.3339 56.1443ZM72.5917 56.1443V56.0783C72.5917 55.7975 72.758 55.657 73.0907 55.657H73.4289V55.4341C73.4289 54.3797 73.9045 53.8525 74.8557 53.8525C75.1994 53.8525 75.4591 53.9144 75.6351 54.0383C75.8139 54.1622 75.9032 54.3177 75.9032 54.5049C75.9032 54.5903 75.8826 54.6755 75.8414 54.7609C75.8028 54.8435 75.763 54.9055 75.7218 54.9467C75.6806 54.9853 75.6572 54.9991 75.6517 54.9881C75.495 54.8422 75.3052 54.7691 75.0825 54.7691C74.9094 54.7691 74.7816 54.8215 74.699 54.9262C74.6193 55.028 74.5794 55.1973 74.5794 55.4341V55.657H75.1114C75.4441 55.657 75.609 55.803 75.6063 56.0947V56.1733C75.6063 56.4485 75.4413 56.5862 75.1114 56.5862H74.6206V59.2497C74.6206 59.4589 74.5753 59.6062 74.4846 59.6915C74.3939 59.7741 74.2619 59.8154 74.0887 59.8154H73.9608C73.6062 59.8154 73.4289 59.6269 73.4289 59.2497V56.5862H73.0907C72.758 56.5834 72.5917 56.4361 72.5917 56.1443ZM76.1712 54.3603C76.1712 54.1731 76.2303 54.0273 76.3486 53.9226C76.4668 53.8153 76.6304 53.7616 76.8393 53.7616C77.0483 53.7616 77.2118 53.8139 77.3301 53.9185C77.4482 54.0231 77.5073 54.1718 77.5073 54.3645C77.5073 54.5545 77.4482 54.7031 77.3301 54.8105C77.2118 54.9178 77.0483 54.9715 76.8393 54.9715C76.6304 54.9715 76.4668 54.9178 76.3486 54.8105C76.2303 54.7031 76.1712 54.5531 76.1712 54.3603ZM76.2414 59.2497V56.1897C76.2414 55.8071 76.4186 55.6144 76.7734 55.6117H76.8971C77.2517 55.6117 77.4304 55.8043 77.4331 56.1897V59.2497C77.4331 59.6269 77.2585 59.8154 76.9094 59.8154H76.7816C76.4214 59.8154 76.2414 59.6269 76.2414 59.2497ZM78.1384 57.7176C78.1384 57.0927 78.3417 56.5793 78.7486 56.1774C79.1583 55.7727 79.6792 55.5703 80.3116 55.5703C80.8752 55.5703 81.3082 55.6928 81.6105 55.9378C81.9157 56.1829 82.0683 56.432 82.0683 56.6853C82.0683 56.8312 82.0148 56.9496 81.9075 57.0405C81.8004 57.1312 81.6931 57.189 81.5859 57.2138C81.4786 57.2359 81.4195 57.2345 81.4085 57.2097C81.2216 56.7527 80.8725 56.5256 80.361 56.5283C80.034 56.5283 79.7645 56.6413 79.5528 56.867C79.3438 57.0899 79.2394 57.3735 79.2394 57.7176C79.2394 58.0728 79.3438 58.3646 79.5528 58.593C79.7645 58.8216 80.034 58.9358 80.361 58.9358C80.8725 58.9358 81.2216 58.7073 81.4085 58.2503C81.414 58.2283 81.4718 58.227 81.5818 58.2462C81.6917 58.2655 81.8004 58.3219 81.9075 58.4155C82.0148 58.5091 82.0683 58.6317 82.0683 58.7831C82.0683 59.0253 81.913 59.2717 81.6023 59.5222C81.2917 59.7699 80.8614 59.8938 80.3116 59.8938C79.6765 59.8938 79.1555 59.6902 78.7486 59.2827C78.3417 58.8753 78.1384 58.3536 78.1384 57.7176ZM82.4766 57.7506C82.4766 57.1202 82.6787 56.5985 83.0828 56.1856C83.4897 55.7699 84.0066 55.5621 84.6334 55.5621C85.2409 55.5621 85.7344 55.7547 86.1139 56.1402C86.4933 56.5229 86.683 57.0184 86.683 57.6267V57.7094C86.6775 57.8223 86.6541 57.9062 86.6129 57.9613C86.5743 58.0136 86.5029 58.0398 86.3984 58.0398H83.5488C83.5873 58.3453 83.7151 58.5862 83.9323 58.7624C84.1495 58.9358 84.4217 59.0225 84.7489 59.0225C85.2905 59.0225 85.6795 58.8189 85.9159 58.4114C85.9214 58.4003 85.9695 58.4072 86.0603 58.432C86.1537 58.4541 86.2486 58.5105 86.3448 58.6014C86.441 58.6895 86.4892 58.8037 86.4892 58.9441C86.4892 59.1864 86.3269 59.4053 86.0025 59.6007C85.6809 59.7961 85.2493 59.8938 84.7076 59.8938C84.0313 59.8938 83.4897 59.6998 83.0828 59.3117C82.6787 58.9207 82.4766 58.4003 82.4766 57.7506ZM83.5488 57.3459H85.5777C85.5668 57.0597 85.4747 56.8298 85.3014 56.6563C85.131 56.4801 84.9014 56.3921 84.6128 56.3921C84.3378 56.3921 84.1028 56.4816 83.9075 56.6605C83.7124 56.8367 83.5928 57.0651 83.5488 57.3459Z" fill="#DE4C7E"/>
</svg>
